<svg xmlns="http://www.w3.org/2000/svg" viewBox="0 0 838.55 825.03"><defs><style>.cls-1,.cls-2,.cls-5{fill:none;}.cls-1,.cls-2,.cls-3,.cls-5,.cls-6{stroke:#1d1d1b;stroke-miterlimit:10;}.cls-1,.cls-3{stroke-width:0.75px;}.cls-2{stroke-width:0.5px;}.cls-3,.cls-4,.cls-6{fill:#1d1d1b;}</style></defs><title>error</title><g id="Capa_2" data-name="Capa 2"><ellipse class="cls-1" cx="419.27" cy="412.5" rx="39.31" ry="38.68"/><ellipse class="cls-1" cx="419.31" cy="412.52" rx="64.55" ry="63.51"/><ellipse class="cls-2" cx="419.28" cy="412.5" rx="59.1" ry="58.14"/><ellipse class="cls-2" cx="419.28" cy="412.52" rx="52.6" ry="51.76"/><ellipse class="cls-2" cx="419.26" cy="412.48" rx="45.79" ry="45.06"/></g><g id="Capa_3" data-name="Capa 3"><path class="cls-1" d="M443.07,365c2-1.22,24.81-68.45-20.33-64.76h0c-45.14-3.69-22.34,63.54-20.33,64.76" transform="translate(-3.43 -12.72)"/><path class="cls-1" d="M393.8,368.47c.54-2.26-31.65-65.66-60.91-31.65l0,0c-34.57,28.79,29.86,60.47,32.16,59.94" transform="translate(-3.43 -12.72)"/><path class="cls-1" d="M361.48,405.23c-1.24-2-69.57-24.41-65.81,20v0c-3.76,44.41,64.57,22,65.81,20" transform="translate(-3.43 -12.72)"/><path class="cls-1" d="M365.05,453.7c-2.3-.53-66.73,31.15-32.16,59.94l0,0c29.26,34,61.45-29.39,60.91-31.64" transform="translate(-3.43 -12.72)"/><path class="cls-1" d="M402.41,485.5c-2,1.22-24.8,68.45,20.33,64.76h0c45.14,3.69,22.34-63.54,20.34-64.76" transform="translate(-3.43 -12.72)"/><path class="cls-1" d="M451.68,482c-.54,2.25,31.66,65.65,60.92,31.64l0,0c34.57-28.79-29.87-60.47-32.16-59.93" transform="translate(-3.43 -12.72)"/><path class="cls-1" d="M484,445.24c1.24,2,69.57,24.4,65.82-20v0c3.75-44.41-64.58-22-65.82-20" transform="translate(-3.43 -12.72)"/><path class="cls-1" d="M480.44,396.76c2.29.53,66.73-31.15,32.16-59.94l0,0c-29.26-34-61.46,29.39-60.92,31.65" transform="translate(-3.43 -12.72)"/><path class="cls-1" d="M439,363.76c3.62-15.85,7.95-51.25-15.91-48.74h0c-23.78-2.5-19.56,32.65-15.95,48.58" transform="translate(-3.43 -12.72)"/><path class="cls-1" d="M390.07,370.45c-8.83-13.73-31.21-41.78-46.28-23.4l0,0c-18.62,14.78,9.63,36.7,23.63,45.45" transform="translate(-3.43 -12.72)"/><path class="cls-1" d="M360.27,409.22c-16.11-3.56-52.1-7.82-49.54,15.66v0c-2.55,23.4,33.18,19.25,49.37,15.69" transform="translate(-3.43 -12.72)"/><path class="cls-1" d="M367.06,457.38c-13.95,8.69-42.46,30.71-23.77,45.53l0,0c15,18.32,37.29-9.47,46.18-23.25" transform="translate(-3.43 -12.72)"/><path class="cls-1" d="M406.47,486.7c-3.62,15.85-8,51.25,15.91,48.74h0C446.2,538,442,502.79,438.36,486.86" transform="translate(-3.43 -12.72)"/><path class="cls-1" d="M455.41,480c8.84,13.72,31.22,41.77,46.28,23.39l0,0c18.62-14.78-9.63-36.7-23.63-45.45" transform="translate(-3.43 -12.72)"/><path class="cls-1" d="M485.22,441.24c16.11,3.56,52.09,7.82,49.53-15.66v0c2.55-23.4-33.18-19.24-49.37-15.69" transform="translate(-3.43 -12.72)"/><path class="cls-1" d="M478.42,393.09c13.95-8.69,42.46-30.71,23.78-45.54l0,0c-15-18.32-37.3,9.48-46.19,23.25" transform="translate(-3.43 -12.72)"/><line class="cls-1" x1="443.88" y1="354.04" x2="471.96" y2="287.34"/><line class="cls-1" x1="469.33" y1="311.24" x2="445.75" y2="354.57"/><line class="cls-1" x1="456.23" y1="305.36" x2="442.27" y2="352.55"/><ellipse class="cls-3" cx="471.96" cy="287.34" rx="2.58" ry="2.54"/><ellipse class="cls-3" cx="469.33" cy="311.24" rx="2.58" ry="2.54"/><ellipse class="cls-3" cx="456.3" cy="305.11" rx="2.58" ry="2.54"/><line class="cls-1" x1="394.67" y1="354.03" x2="366.59" y2="287.33"/><line class="cls-1" x1="381.9" y1="306.05" x2="396.37" y2="353.1"/><line class="cls-1" x1="368.41" y1="311.02" x2="392.46" y2="354.1"/><ellipse class="cls-3" cx="366.59" cy="287.33" rx="2.58" ry="2.54"/><ellipse class="cls-3" cx="381.9" cy="306.05" rx="2.58" ry="2.54"/><ellipse class="cls-3" cx="368.28" cy="310.79" rx="2.58" ry="2.54"/><line class="cls-1" x1="359.87" y1="388.26" x2="292.07" y2="360.63"/><line class="cls-1" x1="316.36" y1="363.22" x2="360.4" y2="386.42"/><line class="cls-1" x1="310.38" y1="376.11" x2="358.35" y2="389.85"/><ellipse class="cls-3" cx="292.07" cy="360.63" rx="2.58" ry="2.54"/><ellipse class="cls-3" cx="316.36" cy="363.22" rx="2.58" ry="2.54"/><ellipse class="cls-3" cx="310.13" cy="376.04" rx="2.58" ry="2.54"/><line class="cls-1" x1="359.86" y1="436.68" x2="292.06" y2="464.31"/><line class="cls-1" x1="311.09" y1="449.24" x2="358.91" y2="435.01"/><line class="cls-1" x1="316.14" y1="462.51" x2="359.93" y2="438.85"/><ellipse class="cls-3" cx="292.06" cy="464.31" rx="2.58" ry="2.54"/><ellipse class="cls-3" cx="311.09" cy="449.24" rx="2.58" ry="2.54"/><ellipse class="cls-3" cx="315.91" cy="462.64" rx="2.58" ry="2.54"/><line class="cls-1" x1="394.65" y1="470.92" x2="366.56" y2="537.62"/><line class="cls-1" x1="369.19" y1="513.73" x2="392.78" y2="470.4"/><line class="cls-1" x1="382.3" y1="519.61" x2="396.26" y2="472.41"/><ellipse class="cls-3" cx="366.56" cy="537.62" rx="2.58" ry="2.54"/><ellipse class="cls-3" cx="369.19" cy="513.73" rx="2.58" ry="2.54"/><ellipse class="cls-3" cx="382.23" cy="519.85" rx="2.58" ry="2.54"/><line class="cls-1" x1="443.85" y1="470.93" x2="471.94" y2="537.63"/><line class="cls-1" x1="456.62" y1="518.91" x2="442.16" y2="471.86"/><line class="cls-1" x1="470.11" y1="513.95" x2="446.07" y2="470.86"/><ellipse class="cls-3" cx="471.94" cy="537.63" rx="2.58" ry="2.54"/><ellipse class="cls-3" cx="456.62" cy="518.91" rx="2.58" ry="2.54"/><ellipse class="cls-3" cx="470.24" cy="514.17" rx="2.58" ry="2.54"/><line class="cls-1" x1="478.66" y1="436.7" x2="546.45" y2="464.33"/><line class="cls-1" x1="522.17" y1="461.75" x2="478.13" y2="438.54"/><line class="cls-1" x1="528.14" y1="448.85" x2="480.17" y2="435.11"/><ellipse class="cls-3" cx="546.45" cy="464.33" rx="2.58" ry="2.54"/><ellipse class="cls-3" cx="522.17" cy="461.75" rx="2.58" ry="2.54"/><ellipse class="cls-3" cx="528.39" cy="448.92" rx="2.58" ry="2.54"/><line class="cls-1" x1="478.67" y1="388.29" x2="546.46" y2="360.66"/><line class="cls-1" x1="527.43" y1="375.72" x2="479.61" y2="389.95"/><line class="cls-1" x1="522.39" y1="362.45" x2="478.6" y2="386.11"/><ellipse class="cls-3" cx="546.46" cy="360.66" rx="2.58" ry="2.54"/><ellipse class="cls-3" cx="527.43" cy="375.72" rx="2.58" ry="2.54"/><ellipse class="cls-3" cx="522.62" cy="362.32" rx="2.58" ry="2.54"/></g><g id="Capa_4" data-name="Capa 4"><path class="cls-1" d="M348.4,327.05c-12.1-8.06,2.53-64.93,1.23-75.79h.12c6.93,8.55,57.85,38.51,55.17,52.64,2.45-12.93-44.11-33.06-50.45-40.87h-.11C355.55,273,337.34,319.68,348.4,327.05Z" transform="translate(-3.43 -12.72)"/><path class="cls-1" d="M299.6,407.51c-14.35,2.71-44.87-47.68-53.6-54.45l.09-.08c11,1.22,68.58-13,76.84-1.17-7.56-10.84-54.95,7.32-65,6.2l-.08.08C265.78,364.28,286.48,410,299.6,407.51Z" transform="translate(-3.43 -12.72)"/><path class="cls-1" d="M322.92,498.34c-8.2,11.9-66-2.48-77-1.2V497c8.69-6.81,39.13-56.91,53.5-54.28-13.14-2.41-33.6,43.4-41.54,49.64v.11C267.94,491.31,315.42,509.23,322.92,498.34Z" transform="translate(-3.43 -12.72)"/><path class="cls-1" d="M404.69,546.35c2.76,14.12-48.45,44.16-55.33,52.74l-.09-.09c1.24-10.86-13.24-67.47-1.18-75.6-11,7.43,7.43,54.06,6.29,64l.08.08C360.76,579.63,407.21,559.26,404.69,546.35Z" transform="translate(-3.43 -12.72)"/><path class="cls-1" d="M497,523.41c12.09,8.07-2.53,64.93-1.23,75.79h-.12c-6.93-8.55-57.86-38.5-55.17-52.64-2.46,12.93,44.11,33.06,50.44,40.87h.11C489.86,577.51,508.08,530.79,497,523.41Z" transform="translate(-3.43 -12.72)"/><path class="cls-1" d="M545.81,443c14.35-2.71,44.88,47.68,53.6,54.45l-.09.09c-11-1.23-68.57,13-76.84,1.16,7.56,10.84,54.95-7.31,65-6.19l.08-.08C579.63,486.18,558.93,440.48,545.81,443Z" transform="translate(-3.43 -12.72)"/><path class="cls-1" d="M522.49,352.12c8.2-11.9,66,2.49,77,1.21v.12c-8.68,6.81-39.13,56.92-53.5,54.28,13.14,2.41,33.6-43.4,41.55-49.63V358C577.48,359.16,530,341.24,522.49,352.12Z" transform="translate(-3.43 -12.72)"/><path class="cls-1" d="M440.72,304.11C438,290,489.18,260,496.06,251.37l.08.09c-1.24,10.86,13.24,67.47,1.19,75.6,11-7.43-7.44-54.06-6.3-64L491,263C484.66,270.83,438.2,291.2,440.72,304.11Z" transform="translate(-3.43 -12.72)"/></g><g id="Capa_5" data-name="Capa 5"><path class="cls-1" d="M458.69,279.91c7.71-37.34-23.59-64.34-35.56-91.68-12,27.34-44.34,54.34-36.62,91.68l1.4,1.2c-7.33-32.52,23.43-56,34.81-79.85,11.38,23.81,42.19,47.68,34.85,80.2" transform="translate(-3.43 -12.72)"/><path class="cls-1" d="M433.89,219.11A34.58,34.58,0,0,0,403,236.83a26.59,26.59,0,0,0,10.66,36.49,22.08,22.08,0,0,0,29.62-8.76,17,17,0,0,0-6.82-23.36,14.14,14.14,0,0,0-19,5.61,10.89,10.89,0,0,0,4.37,14.95A9,9,0,0,0,434,258.17" transform="translate(-3.43 -12.72)"/><path class="cls-1" d="M343.71,297.44c-21.38-31.77-62.92-29.08-91-40.09,11.19,27.66,7.7,69.27,40,90.3l1.85-.12c-28.55-17.89-23.7-55.93-32.77-80.68,25.16,8.92,64.1,4.37,82.29,32.46" transform="translate(-3.43 -12.72)"/><path class="cls-1" d="M282.48,271.7a33.57,33.57,0,0,0-9.09,34,27.33,27.33,0,0,0,33.77,18.39,21.49,21.49,0,0,0,14.64-26.8,17.49,17.49,0,0,0-21.61-11.77,13.75,13.75,0,0,0-9.37,17.15,11.19,11.19,0,0,0,13.83,7.53,8.79,8.79,0,0,0,6-11" transform="translate(-3.43 -12.72)"/><path class="cls-1" d="M275,389.83c-37.94-7.59-65.38,23.21-93.17,35,27.79,11.77,55.23,43.62,93.17,36l1.22-1.39c-33.05,7.22-57-23-81.15-34.24,24.2-11.2,48.46-41.51,81.51-34.29" transform="translate(-3.43 -12.72)"/><path class="cls-1" d="M213.22,414.23a33.81,33.81,0,0,0,18,30.36c13.32,7.16,29.92,2.47,37.09-10.49a21.37,21.37,0,0,0-8.9-29.14,17.6,17.6,0,0,0-23.74,6.71,13.67,13.67,0,0,0,5.7,18.65A11.26,11.26,0,0,0,256.56,426a8.75,8.75,0,0,0-3.65-11.94" transform="translate(-3.43 -12.72)"/><path class="cls-1" d="M292.82,503c-32.28,21-29.55,61.9-40.74,89.56,28.11-11,70.41-7.58,91.78-39.34l-.13-1.83c-18.18,28.09-56.84,23.32-82,32.24,9.07-24.75,4.44-63.06,33-81" transform="translate(-3.43 -12.72)"/><path class="cls-1" d="M266.67,563.2a34.85,34.85,0,0,0,34.55,8.94c14.56-4.2,22.93-19.07,18.69-33.22-3.39-11.32-15.59-17.77-27.24-14.41a17.12,17.12,0,0,0-12,21.26A14,14,0,0,0,298.14,555a11,11,0,0,0,7.66-13.6,9,9,0,0,0-11.16-5.91" transform="translate(-3.43 -12.72)"/><path class="cls-1" d="M386.73,570.56c-7.72,37.33,23.59,64.33,35.55,91.67,12-27.34,44.34-54.34,36.63-91.67l-1.41-1.2c7.33,32.51-23.43,56-34.81,79.84-11.37-23.81-42.18-47.68-34.85-80.2" transform="translate(-3.43 -12.72)"/><path class="cls-1" d="M411.52,631.35a34.58,34.58,0,0,0,30.86-17.72,26.59,26.59,0,0,0-10.66-36.49,22.07,22.07,0,0,0-29.61,8.76,17,17,0,0,0,6.82,23.36,14.13,14.13,0,0,0,18.95-5.61,10.9,10.9,0,0,0-4.36-14.95,9,9,0,0,0-12.13,3.59" transform="translate(-3.43 -12.72)"/><path class="cls-1" d="M501.71,553c21.37,31.77,62.91,29.08,91,40.09-11.18-27.66-7.7-69.27-40-90.3l-1.86.13c28.55,17.89,23.7,55.92,32.77,80.67-25.16-8.92-64.1-4.37-82.28-32.46" transform="translate(-3.43 -12.72)"/><path class="cls-1" d="M562.93,578.76a33.53,33.53,0,0,0,9.09-34,27.33,27.33,0,0,0-33.76-18.4,21.49,21.49,0,0,0-14.65,26.8,17.49,17.49,0,0,0,21.61,11.77,13.74,13.74,0,0,0,9.37-17.15,11.19,11.19,0,0,0-13.83-7.53,8.81,8.81,0,0,0-6,11" transform="translate(-3.43 -12.72)"/><path class="cls-1" d="M570.41,460.63c38,7.59,65.39-23.21,93.17-35-27.78-11.78-55.22-43.63-93.17-36L569.19,391c33-7.22,56.95,23.05,81.15,34.24-24.2,11.2-48.46,41.51-81.51,34.29" transform="translate(-3.43 -12.72)"/><path class="cls-1" d="M632.2,436.23a33.84,33.84,0,0,0-18-30.36c-13.31-7.16-29.92-2.46-37.09,10.49A21.37,21.37,0,0,0,586,445.5a17.6,17.6,0,0,0,23.74-6.71,13.68,13.68,0,0,0-5.7-18.65,11.28,11.28,0,0,0-15.2,4.29,8.76,8.76,0,0,0,3.65,11.94" transform="translate(-3.43 -12.72)"/><path class="cls-1" d="M552.59,347.5c32.29-21,29.56-61.9,40.74-89.56-28.11,11-70.4,7.58-91.78,39.35l.13,1.82c18.19-28.09,56.84-23.32,82-32.24-9.07,24.75-4.44,63.07-33,81" transform="translate(-3.43 -12.72)"/><path class="cls-1" d="M578.75,287.26a34.88,34.88,0,0,0-34.55-8.94c-14.57,4.2-22.94,19.08-18.7,33.22,3.4,11.32,15.59,17.77,27.24,14.41a17.12,17.12,0,0,0,12-21.26,14.06,14.06,0,0,0-17.44-9.22,11,11,0,0,0-7.65,13.61,9,9,0,0,0,11.15,5.9" transform="translate(-3.43 -12.72)"/></g><g id="Capa_6" data-name="Capa 6"><path class="cls-1" d="M556,267.18c30.31-15.72-23.78-82.94-25.45-97.76V169c-11.8,9.36-98.32,19.56-88.06,51.73" transform="translate(-3.43 -12.72)"/><path class="cls-1" d="M549.87,268.64C569,251.52,525.5,197,524.09,184.47v-.39c-9.89,7.84-79.14,16.36-78.6,41.45" transform="translate(-3.43 -12.72)"/><polygon class="cls-4" points="521.12 171.56 500.01 220.96 520.19 171.18 521.12 171.56"/><polygon class="cls-4" points="527.65 186.52 515.99 215.4 526.72 186.16 527.65 186.52"/><polygon class="cls-4" points="505.83 177.39 494.17 206.28 504.9 177.03 505.83 177.39"/><path class="cls-1" d="M403.4,220.71c10.14-32.21-76.41-42.11-88.25-51.42l-.31-.31c-1.62,14.83-55.46,82.23-25.09,97.85" transform="translate(-3.43 -12.72)"/><path class="cls-1" d="M400.11,226c1.22-25.42-68.76-33.74-78.73-41.59l-.28-.27c-1.35,12.43-44.2,66.62-25.78,84" transform="translate(-3.43 -12.72)"/><polygon class="cls-4" points="318.13 171.25 338.72 220.88 317.21 171.64 318.13 171.25"/><polygon class="cls-4" points="333.5 177.29 346.02 205.83 332.6 177.7 333.5 177.29"/><polygon class="cls-4" points="311.52 186.01 324.04 214.56 310.61 186.43 311.52 186.01"/><path class="cls-1" d="M262.09,294c-16-29.82-84.3,23.39-99.36,25h-.44c9.51,11.61,19.88,96.73,52.58,86.64" transform="translate(-3.43 -12.72)"/><path class="cls-1" d="M263.58,300.06c-17.4-18.82-72.87,24-85.56,25.38h-.39c8,9.73,16.63,77.85,42.13,77.33" transform="translate(-3.43 -12.72)"/><polygon class="cls-4" points="174.39 312.26 224.61 333.03 174.01 313.19 174.39 312.26"/><polygon class="cls-4" points="189.6 305.83 218.96 317.31 189.25 306.77 189.6 305.83"/><polygon class="cls-4" points="180.32 327.3 209.68 338.78 179.97 328.24 180.32 327.3"/><path class="cls-1" d="M214.85,444.18c-32.73-10-42.79,75.18-52.26,86.83l-.31.3c15.07,1.6,83.58,54.57,99.45,24.69" transform="translate(-3.43 -12.72)"/><path class="cls-1" d="M220.25,447.41c-25.83-1.2-34.29,67.66-42.26,77.47l-.28.27c12.63,1.34,67.71,43.49,85.36,25.37" transform="translate(-3.43 -12.72)"/><polygon class="cls-4" points="174.09 511.97 224.52 491.73 174.47 512.89 174.09 511.97"/><polygon class="cls-4" points="180.23 496.85 209.23 484.54 180.63 497.76 180.23 496.85"/><polygon class="cls-4" points="189.09 518.48 218.1 506.18 189.5 519.4 189.09 518.48"/><path class="cls-1" d="M289.37,583.21c-30.31,15.72,23.77,82.94,25.45,97.76v.43c11.8-9.35,98.31-19.56,88.06-51.73" transform="translate(-3.43 -12.72)"/><path class="cls-1" d="M295.51,581.75c-19.13,17.12,24.38,71.69,25.79,84.18v.38c9.89-7.84,79.13-16.36,78.59-41.45" transform="translate(-3.43 -12.72)"/><polygon class="cls-4" points="317.41 653.4 338.51 604 318.33 653.79 317.41 653.4"/><polygon class="cls-4" points="310.88 638.44 322.54 609.56 311.81 638.8 310.88 638.44"/><polygon class="cls-4" points="332.69 647.57 344.35 618.69 333.63 647.93 332.69 647.57"/><path class="cls-1" d="M442,629.69c-10.14,32.2,76.42,42.1,88.25,51.42l.31.3c1.63-14.82,55.47-82.23,25.1-97.84" transform="translate(-3.43 -12.72)"/><path class="cls-1" d="M445.27,624.38C444.05,649.79,514,658.11,524,666l.27.27c1.36-12.42,44.2-66.62,25.79-84" transform="translate(-3.43 -12.72)"/><polygon class="cls-4" points="520.39 653.71 499.8 604.09 521.31 653.32 520.39 653.71"/><polygon class="cls-4" points="505.02 647.67 492.5 619.13 505.93 647.26 505.02 647.67"/><polygon class="cls-4" points="527.01 638.95 514.49 610.41 527.92 638.53 527.01 638.95"/><path class="cls-1" d="M583.3,556.37c16,29.83,84.29-23.39,99.35-25h.44c-9.51-11.62-19.88-96.74-52.57-86.65" transform="translate(-3.43 -12.72)"/><path class="cls-1" d="M581.81,550.33c17.4,18.82,72.86-24,85.55-25.37h.39c-8-9.73-16.62-77.86-42.12-77.33" transform="translate(-3.43 -12.72)"/><polygon class="cls-4" points="664.14 512.71 613.92 491.93 664.51 511.78 664.14 512.71"/><polygon class="cls-4" points="648.93 519.13 619.57 507.65 649.28 518.19 648.93 519.13"/><polygon class="cls-4" points="658.21 497.67 628.84 486.18 658.56 496.73 658.21 497.67"/><path class="cls-1" d="M630.53,406.22c32.73,10,42.8-75.19,52.26-86.83l.31-.31c-15.07-1.59-83.58-54.57-99.44-24.69" transform="translate(-3.43 -12.72)"/><path class="cls-1" d="M625.13,403c25.83,1.2,34.29-67.65,42.27-77.46l.27-.27C655,323.91,600,281.76,582.31,299.87" transform="translate(-3.43 -12.72)"/><polygon class="cls-4" points="664.43 312.99 614 333.24 664.05 312.07 664.43 312.99"/><polygon class="cls-4" points="658.3 328.11 629.29 340.42 657.89 327.2 658.3 328.11"/><polygon class="cls-4" points="649.43 306.48 620.43 318.79 649.03 305.57 649.43 306.48"/></g><g id="Capa_7" data-name="Capa 7"><path class="cls-5" d="M381.9,191.91a55.61,55.61,0,0,1,81.86.29" transform="translate(-3.43 -12.72)"/><path class="cls-5" d="M363.67,185.11a74.24,74.24,0,0,1,118.22.22" transform="translate(-3.43 -12.72)"/><line class="cls-5" x1="419.27" y1="161.38" x2="419.27" y2="151.36"/><ellipse class="cls-6" cx="419.27" cy="148.68" rx="2.72" ry="2.68"/><line class="cls-5" x1="411.61" y1="161.9" x2="410.2" y2="151.98"/><ellipse class="cls-6" cx="409.82" cy="149.33" rx="2.72" ry="2.68"/><line class="cls-5" x1="404.11" y1="163.47" x2="401.3" y2="153.84"/><ellipse class="cls-6" cx="400.55" cy="151.27" rx="2.72" ry="2.68"/><line class="cls-5" x1="396.9" y1="166.06" x2="392.75" y2="156.9"/><ellipse class="cls-6" cx="391.65" cy="154.46" rx="2.72" ry="2.68"/><line class="cls-5" x1="390.12" y1="169.6" x2="384.72" y2="161.11"/><ellipse class="cls-6" cx="383.28" cy="158.83" rx="2.72" ry="2.68"/><line class="cls-5" x1="383.91" y1="174.04" x2="377.37" y2="166.37"/><ellipse class="cls-6" cx="375.62" cy="164.31" rx="2.72" ry="2.68"/><line class="cls-5" x1="378.39" y1="179.28" x2="370.82" y2="172.58"/><ellipse class="cls-6" cx="368.8" cy="170.79" rx="2.72" ry="2.68"/><line class="cls-5" x1="460.15" y1="179.28" x2="467.72" y2="172.58"/><ellipse class="cls-6" cx="469.74" cy="170.79" rx="2.72" ry="2.68"/><line class="cls-5" x1="454.63" y1="174.04" x2="461.17" y2="166.37"/><ellipse class="cls-6" cx="462.92" cy="164.31" rx="2.72" ry="2.68"/><line class="cls-5" x1="448.42" y1="169.6" x2="453.82" y2="161.11"/><ellipse class="cls-6" cx="455.26" cy="158.83" rx="2.72" ry="2.68"/><line class="cls-5" x1="441.64" y1="166.06" x2="445.79" y2="156.9"/><ellipse class="cls-6" cx="446.89" cy="154.46" rx="2.72" ry="2.68"/><line class="cls-5" x1="434.43" y1="163.47" x2="437.24" y2="153.84"/><ellipse class="cls-6" cx="437.99" cy="151.27" rx="2.72" ry="2.68"/><line class="cls-5" x1="426.93" y1="161.9" x2="428.34" y2="151.98"/><ellipse class="cls-6" cx="428.72" cy="149.33" rx="2.72" ry="2.68"/><path class="cls-5" d="M226.17,288.64a53.52,53.52,0,0,1,16-41,55.4,55.4,0,0,1,42-15.76" transform="translate(-3.43 -12.72)"/><path class="cls-5" d="M208.39,296.51a71.51,71.51,0,0,1,20.74-61.72,74.17,74.17,0,0,1,63-20.37" transform="translate(-3.43 -12.72)"/><line class="cls-5" x1="238.78" y1="234.94" x2="231.58" y2="227.86"/><ellipse class="cls-6" cx="229.66" cy="225.96" rx="2.72" ry="2.68"/><line class="cls-5" x1="233.75" y1="240.64" x2="225.62" y2="234.61"/><ellipse class="cls-6" cx="223.44" cy="233" rx="2.72" ry="2.68"/><line class="cls-5" x1="229.57" y1="246.97" x2="220.66" y2="242.11"/><ellipse class="cls-6" cx="218.28" cy="240.81" rx="2.72" ry="2.68"/><line class="cls-5" x1="226.33" y1="253.81" x2="216.82" y2="250.22"/><ellipse class="cls-6" cx="214.28" cy="249.26" rx="2.72" ry="2.68"/><line class="cls-5" x1="224.08" y1="261.03" x2="214.16" y2="258.78"/><ellipse class="cls-6" cx="211.51" cy="258.18" rx="2.72" ry="2.68"/><line class="cls-5" x1="222.88" y1="268.49" x2="212.74" y2="267.62"/><ellipse class="cls-6" cx="210.02" cy="267.39" rx="2.72" ry="2.68"/><line class="cls-5" x1="222.75" y1="276.04" x2="212.58" y2="276.57"/><ellipse class="cls-6" cx="209.86" cy="276.71" rx="2.72" ry="2.68"/><line class="cls-5" x1="280.56" y1="219.16" x2="281.09" y2="209.16"/><ellipse class="cls-6" cx="281.23" cy="206.48" rx="2.72" ry="2.68"/><line class="cls-5" x1="272.89" y1="219.29" x2="272" y2="209.31"/><ellipse class="cls-6" cx="271.76" cy="206.64" rx="2.72" ry="2.68"/><line class="cls-5" x1="265.31" y1="220.47" x2="263.02" y2="210.71"/><ellipse class="cls-6" cx="262.4" cy="208.1" rx="2.72" ry="2.68"/><line class="cls-5" x1="257.97" y1="222.68" x2="254.32" y2="213.33"/><ellipse class="cls-6" cx="253.34" cy="210.83" rx="2.72" ry="2.68"/><line class="cls-5" x1="251.01" y1="225.87" x2="246.08" y2="217.11"/><ellipse class="cls-6" cx="244.75" cy="214.77" rx="2.72" ry="2.68"/><line class="cls-5" x1="244.58" y1="229.99" x2="238.45" y2="221.98"/><ellipse class="cls-6" cx="236.81" cy="219.84" rx="2.72" ry="2.68"/><path class="cls-5" d="M185.57,465.38a53.55,53.55,0,0,1,.29-80.54" transform="translate(-3.43 -12.72)"/><path class="cls-5" d="M178.66,483.32A71.65,71.65,0,0,1,178.87,367" transform="translate(-3.43 -12.72)"/><line class="cls-5" x1="164.03" y1="412.52" x2="153.85" y2="412.52"/><ellipse class="cls-6" cx="151.12" cy="412.52" rx="2.72" ry="2.68"/><line class="cls-5" x1="164.56" y1="420.06" x2="154.48" y2="421.45"/><ellipse class="cls-6" cx="151.78" cy="421.82" rx="2.72" ry="2.68"/><line class="cls-5" x1="166.16" y1="427.44" x2="156.37" y2="430.2"/><ellipse class="cls-6" cx="153.75" cy="430.94" rx="2.72" ry="2.68"/><line class="cls-5" x1="168.78" y1="434.54" x2="159.48" y2="438.61"/><ellipse class="cls-6" cx="156.99" cy="439.7" rx="2.72" ry="2.68"/><line class="cls-5" x1="172.39" y1="441.2" x2="163.75" y2="446.51"/><ellipse class="cls-6" cx="161.44" cy="447.93" rx="2.72" ry="2.68"/><line class="cls-5" x1="176.9" y1="447.31" x2="169.1" y2="453.75"/><ellipse class="cls-6" cx="167.01" cy="455.47" rx="2.72" ry="2.68"/><line class="cls-5" x1="182.23" y1="452.74" x2="175.41" y2="460.19"/><ellipse class="cls-6" cx="173.59" cy="462.18" rx="2.72" ry="2.68"/><line class="cls-5" x1="182.23" y1="372.3" x2="175.41" y2="364.86"/><ellipse class="cls-6" cx="173.59" cy="362.87" rx="2.72" ry="2.68"/><line class="cls-5" x1="176.9" y1="377.73" x2="169.1" y2="371.29"/><ellipse class="cls-6" cx="167.01" cy="369.57" rx="2.72" ry="2.68"/><line class="cls-5" x1="172.39" y1="383.84" x2="163.75" y2="378.53"/><ellipse class="cls-6" cx="161.44" cy="377.11" rx="2.72" ry="2.68"/><line class="cls-5" x1="168.78" y1="390.51" x2="159.48" y2="386.43"/><ellipse class="cls-6" cx="156.99" cy="385.34" rx="2.72" ry="2.68"/><line class="cls-5" x1="166.16" y1="397.6" x2="156.37" y2="394.84"/><ellipse class="cls-6" cx="153.75" cy="394.1" rx="2.72" ry="2.68"/><line class="cls-5" x1="164.56" y1="404.99" x2="154.48" y2="403.6"/><ellipse class="cls-6" cx="151.78" cy="403.22" rx="2.72" ry="2.68"/><path class="cls-5" d="M283.88,618.6a55.37,55.37,0,0,1-41.66-15.78,53.53,53.53,0,0,1-16-41.37" transform="translate(-3.43 -12.72)"/><path class="cls-5" d="M291.88,636.09a74.12,74.12,0,0,1-62.73-20.4,71.51,71.51,0,0,1-20.71-62" transform="translate(-3.43 -12.72)"/><line class="cls-5" x1="238.79" y1="590.1" x2="231.59" y2="597.19"/><ellipse class="cls-6" cx="229.67" cy="599.08" rx="2.72" ry="2.68"/><line class="cls-5" x1="244.59" y1="595.06" x2="238.46" y2="603.06"/><ellipse class="cls-6" cx="236.82" cy="605.2" rx="2.72" ry="2.68"/><line class="cls-5" x1="251.02" y1="599.17" x2="246.09" y2="607.93"/><ellipse class="cls-6" cx="244.76" cy="610.27" rx="2.72" ry="2.68"/><line class="cls-5" x1="257.98" y1="602.36" x2="254.33" y2="611.71"/><ellipse class="cls-6" cx="253.35" cy="614.21" rx="2.72" ry="2.68"/><line class="cls-5" x1="265.32" y1="604.57" x2="263.03" y2="614.33"/><ellipse class="cls-6" cx="262.41" cy="616.94" rx="2.72" ry="2.68"/><line class="cls-5" x1="272.9" y1="605.75" x2="272.01" y2="615.73"/><ellipse class="cls-6" cx="271.77" cy="618.4" rx="2.72" ry="2.68"/><line class="cls-5" x1="280.57" y1="605.88" x2="281.1" y2="615.88"/><ellipse class="cls-6" cx="281.24" cy="618.56" rx="2.72" ry="2.68"/><line class="cls-5" x1="222.76" y1="549" x2="212.59" y2="548.47"/><ellipse class="cls-6" cx="209.87" cy="548.33" rx="2.72" ry="2.68"/><line class="cls-5" x1="222.89" y1="556.55" x2="212.75" y2="557.42"/><ellipse class="cls-6" cx="210.03" cy="557.66" rx="2.72" ry="2.68"/><line class="cls-5" x1="224.09" y1="564.01" x2="214.17" y2="566.26"/><ellipse class="cls-6" cx="211.52" cy="566.86" rx="2.72" ry="2.68"/><line class="cls-5" x1="226.34" y1="571.23" x2="216.83" y2="574.82"/><ellipse class="cls-6" cx="214.29" cy="575.78" rx="2.72" ry="2.68"/><line class="cls-5" x1="229.58" y1="578.07" x2="220.67" y2="582.93"/><ellipse class="cls-6" cx="218.29" cy="584.23" rx="2.72" ry="2.68"/><line class="cls-5" x1="233.76" y1="584.4" x2="225.63" y2="590.43"/><ellipse class="cls-6" cx="223.45" cy="592.05" rx="2.72" ry="2.68"/><path class="cls-5" d="M463.51,658.55a55.61,55.61,0,0,1-81.86-.29" transform="translate(-3.43 -12.72)"/><path class="cls-5" d="M481.74,665.35a74.23,74.23,0,0,1-118.21-.21" transform="translate(-3.43 -12.72)"/><line class="cls-5" x1="419.28" y1="663.65" x2="419.28" y2="673.67"/><ellipse class="cls-6" cx="419.28" cy="676.35" rx="2.72" ry="2.68"/><line class="cls-5" x1="426.94" y1="663.13" x2="428.36" y2="673.05"/><ellipse class="cls-6" cx="428.74" cy="675.7" rx="2.72" ry="2.68"/><line class="cls-5" x1="434.45" y1="661.56" x2="437.25" y2="671.19"/><ellipse class="cls-6" cx="438" cy="673.76" rx="2.72" ry="2.68"/><line class="cls-5" x1="441.66" y1="658.97" x2="445.8" y2="668.13"/><ellipse class="cls-6" cx="446.91" cy="670.57" rx="2.72" ry="2.68"/><line class="cls-5" x1="448.43" y1="655.43" x2="453.83" y2="663.93"/><ellipse class="cls-6" cx="455.27" cy="666.2" rx="2.72" ry="2.68"/><line class="cls-5" x1="454.64" y1="650.99" x2="461.19" y2="658.67"/><ellipse class="cls-6" cx="462.94" cy="660.72" rx="2.72" ry="2.68"/><line class="cls-5" x1="460.16" y1="645.75" x2="467.73" y2="652.45"/><ellipse class="cls-6" cx="469.75" cy="654.24" rx="2.72" ry="2.68"/><line class="cls-5" x1="378.4" y1="645.75" x2="370.84" y2="652.45"/><ellipse class="cls-6" cx="368.81" cy="654.24" rx="2.72" ry="2.68"/><line class="cls-5" x1="383.93" y1="650.99" x2="377.38" y2="658.67"/><ellipse class="cls-6" cx="375.63" cy="660.72" rx="2.72" ry="2.68"/><line class="cls-5" x1="390.13" y1="655.43" x2="384.74" y2="663.93"/><ellipse class="cls-6" cx="383.29" cy="666.2" rx="2.72" ry="2.68"/><line class="cls-5" x1="396.91" y1="658.97" x2="392.77" y2="668.13"/><ellipse class="cls-6" cx="391.66" cy="670.57" rx="2.72" ry="2.68"/><line class="cls-5" x1="404.12" y1="661.56" x2="401.32" y2="671.19"/><ellipse class="cls-6" cx="400.56" cy="673.76" rx="2.72" ry="2.68"/><line class="cls-5" x1="411.63" y1="663.13" x2="410.21" y2="673.05"/><ellipse class="cls-6" cx="409.83" cy="675.7" rx="2.72" ry="2.68"/><path class="cls-5" d="M619.24,561.82a53.52,53.52,0,0,1-16,41,55.38,55.38,0,0,1-42,15.76" transform="translate(-3.43 -12.72)"/><path class="cls-5" d="M637,554a71.51,71.51,0,0,1-20.74,61.73,74.19,74.19,0,0,1-63,20.36" transform="translate(-3.43 -12.72)"/><line class="cls-5" x1="599.77" y1="590.09" x2="606.97" y2="597.18"/><ellipse class="cls-6" cx="608.9" cy="599.07" rx="2.72" ry="2.68"/><line class="cls-5" x1="604.81" y1="584.39" x2="612.94" y2="590.42"/><ellipse class="cls-6" cx="615.11" cy="592.04" rx="2.72" ry="2.68"/><line class="cls-5" x1="608.99" y1="578.06" x2="617.89" y2="582.92"/><ellipse class="cls-6" cx="620.27" cy="584.22" rx="2.72" ry="2.68"/><line class="cls-5" x1="612.23" y1="571.22" x2="621.73" y2="574.81"/><ellipse class="cls-6" cx="624.28" cy="575.77" rx="2.72" ry="2.68"/><line class="cls-5" x1="614.47" y1="564" x2="624.39" y2="566.25"/><ellipse class="cls-6" cx="627.05" cy="566.85" rx="2.72" ry="2.68"/><line class="cls-5" x1="615.67" y1="556.54" x2="625.82" y2="557.41"/><ellipse class="cls-6" cx="628.53" cy="557.65" rx="2.72" ry="2.68"/><line class="cls-5" x1="615.81" y1="548.99" x2="625.98" y2="548.46"/><ellipse class="cls-6" cx="628.7" cy="548.32" rx="2.72" ry="2.68"/><line class="cls-5" x1="557.99" y1="605.87" x2="557.46" y2="615.87"/><ellipse class="cls-6" cx="557.32" cy="618.55" rx="2.72" ry="2.68"/><line class="cls-5" x1="565.67" y1="605.74" x2="566.56" y2="615.72"/><ellipse class="cls-6" cx="566.79" cy="618.39" rx="2.72" ry="2.68"/><line class="cls-5" x1="573.25" y1="604.56" x2="575.54" y2="614.32"/><ellipse class="cls-6" cx="576.15" cy="616.93" rx="2.72" ry="2.68"/><line class="cls-5" x1="580.59" y1="602.35" x2="584.24" y2="611.7"/><ellipse class="cls-6" cx="585.21" cy="614.2" rx="2.72" ry="2.68"/><line class="cls-5" x1="587.54" y1="599.16" x2="592.48" y2="607.92"/><ellipse class="cls-6" cx="593.8" cy="610.26" rx="2.72" ry="2.68"/><line class="cls-5" x1="593.98" y1="595.05" x2="600.11" y2="603.05"/><ellipse class="cls-6" cx="601.75" cy="605.19" rx="2.72" ry="2.68"/><path class="cls-5" d="M659.84,385.08a53.54,53.54,0,0,1-.28,80.54" transform="translate(-3.43 -12.72)"/><path class="cls-5" d="M666.76,367.15a71.65,71.65,0,0,1-.22,116.31" transform="translate(-3.43 -12.72)"/><line class="cls-5" x1="674.53" y1="412.51" x2="684.71" y2="412.51"/><ellipse class="cls-6" cx="687.43" cy="412.51" rx="2.72" ry="2.68"/><line class="cls-5" x1="673.99" y1="404.98" x2="684.07" y2="403.58"/><ellipse class="cls-6" cx="686.77" cy="403.21" rx="2.72" ry="2.68"/><line class="cls-5" x1="672.4" y1="397.59" x2="682.18" y2="394.83"/><ellipse class="cls-6" cx="684.8" cy="394.09" rx="2.72" ry="2.68"/><line class="cls-5" x1="669.77" y1="390.49" x2="679.07" y2="386.42"/><ellipse class="cls-6" cx="681.56" cy="385.33" rx="2.72" ry="2.68"/><line class="cls-5" x1="666.17" y1="383.83" x2="674.8" y2="378.52"/><ellipse class="cls-6" cx="677.11" cy="377.1" rx="2.72" ry="2.68"/><line class="cls-5" x1="661.66" y1="377.72" x2="669.46" y2="371.28"/><ellipse class="cls-6" cx="671.54" cy="369.56" rx="2.72" ry="2.68"/><line class="cls-5" x1="656.33" y1="372.29" x2="663.14" y2="364.84"/><ellipse class="cls-6" cx="664.96" cy="362.85" rx="2.72" ry="2.68"/><line class="cls-5" x1="656.33" y1="452.73" x2="663.14" y2="460.17"/><ellipse class="cls-6" cx="664.96" cy="462.17" rx="2.72" ry="2.68"/><line class="cls-5" x1="661.66" y1="447.3" x2="669.46" y2="453.74"/><ellipse class="cls-6" cx="671.54" cy="455.46" rx="2.72" ry="2.68"/><line class="cls-5" x1="666.17" y1="441.19" x2="674.8" y2="446.5"/><ellipse class="cls-6" cx="677.11" cy="447.92" rx="2.72" ry="2.68"/><line class="cls-5" x1="669.77" y1="434.52" x2="679.07" y2="438.6"/><ellipse class="cls-6" cx="681.56" cy="439.69" rx="2.72" ry="2.68"/><line class="cls-5" x1="672.4" y1="427.43" x2="682.18" y2="430.19"/><ellipse class="cls-6" cx="684.8" cy="430.93" rx="2.72" ry="2.68"/><line class="cls-5" x1="673.99" y1="420.04" x2="684.07" y2="421.44"/><ellipse class="cls-6" cx="686.77" cy="421.81" rx="2.72" ry="2.68"/><path class="cls-5" d="M561.53,231.86a55.38,55.38,0,0,1,41.66,15.78,53.53,53.53,0,0,1,16,41.37" transform="translate(-3.43 -12.72)"/><path class="cls-5" d="M553.53,214.37a74.12,74.12,0,0,1,62.74,20.41,71.49,71.49,0,0,1,20.7,62" transform="translate(-3.43 -12.72)"/><line class="cls-5" x1="599.76" y1="234.93" x2="606.96" y2="227.85"/><ellipse class="cls-6" cx="608.89" cy="225.95" rx="2.72" ry="2.68"/><line class="cls-5" x1="593.97" y1="229.98" x2="600.1" y2="221.97"/><ellipse class="cls-6" cx="601.74" cy="219.83" rx="2.72" ry="2.68"/><line class="cls-5" x1="587.53" y1="225.86" x2="592.47" y2="217.1"/><ellipse class="cls-6" cx="593.79" cy="214.76" rx="2.72" ry="2.68"/><line class="cls-5" x1="580.58" y1="222.67" x2="584.23" y2="213.32"/><ellipse class="cls-6" cx="585.2" cy="210.82" rx="2.72" ry="2.68"/><line class="cls-5" x1="573.24" y1="220.46" x2="575.53" y2="210.7"/><ellipse class="cls-6" cx="576.14" cy="208.09" rx="2.72" ry="2.68"/><line class="cls-5" x1="565.66" y1="219.28" x2="566.55" y2="209.3"/><ellipse class="cls-6" cx="566.78" cy="206.63" rx="2.72" ry="2.68"/><line class="cls-5" x1="557.98" y1="219.15" x2="557.45" y2="209.15"/><ellipse class="cls-6" cx="557.31" cy="206.47" rx="2.72" ry="2.68"/><line class="cls-5" x1="615.8" y1="276.03" x2="625.97" y2="276.56"/><ellipse class="cls-6" cx="628.69" cy="276.7" rx="2.72" ry="2.68"/><line class="cls-5" x1="615.66" y1="268.48" x2="625.81" y2="267.61"/><ellipse class="cls-6" cx="628.52" cy="267.38" rx="2.72" ry="2.68"/><line class="cls-5" x1="614.46" y1="261.02" x2="624.38" y2="258.77"/><ellipse class="cls-6" cx="627.04" cy="258.17" rx="2.72" ry="2.68"/><line class="cls-5" x1="612.22" y1="253.8" x2="621.72" y2="250.21"/><ellipse class="cls-6" cx="624.27" cy="249.25" rx="2.72" ry="2.68"/><line class="cls-5" x1="608.98" y1="246.96" x2="617.88" y2="242.1"/><ellipse class="cls-6" cx="620.26" cy="240.8" rx="2.72" ry="2.68"/><line class="cls-5" x1="604.8" y1="240.63" x2="612.93" y2="234.6"/><ellipse class="cls-6" cx="615.1" cy="232.99" rx="2.72" ry="2.68"/></g><g id="Capa_8" data-name="Capa 8"><path class="cls-1" d="M418,156.09c-.59-.72-2.54-9.11.69-12.87a4.88,4.88,0,0,1,4-1.47h.05a4.87,4.87,0,0,1,4,1.47c3.24,3.76,1.29,12.15.7,12.87" transform="translate(-3.43 -12.72)"/><path class="cls-1" d="M406.85,157.65c-.69-.62-4-8.61-1.35-12.82a4.86,4.86,0,0,1,3.72-2.07h0a4.93,4.93,0,0,1,4.19.84c3.8,3.21,3.2,11.8,2.74,12.6" transform="translate(-3.43 -12.72)"/><path class="cls-1" d="M396.1,160.9c-.79-.51-5.28-7.89-3.38-12.45a4.85,4.85,0,0,1,3.34-2.62l.06,0a4.94,4.94,0,0,1,4.27.19c4.26,2.59,5,11.16,4.7,12" transform="translate(-3.43 -12.72)"/><path class="cls-1" d="M386,165.77c-.86-.38-6.47-7-5.32-11.77a4.8,4.8,0,0,1,2.89-3.11l.05,0a4.93,4.93,0,0,1,4.25-.48c4.61,1.9,6.75,10.25,6.56,11.16" transform="translate(-3.43 -12.72)"/><path class="cls-1" d="M376.78,172.14c-.91-.25-7.5-5.91-7.12-10.82a4.78,4.78,0,0,1,2.35-3.51l.05,0a4.9,4.9,0,0,1,4.12-1.12c4.86,1.17,8.3,9.08,8.25,10" transform="translate(-3.43 -12.72)"/><path class="cls-1" d="M368.7,179.84c-.94-.1-8.35-4.68-8.76-9.58a4.75,4.75,0,0,1,1.77-3.83l0,0a4.88,4.88,0,0,1,3.89-1.74c5,.4,9.64,7.69,9.75,8.61" transform="translate(-3.43 -12.72)"/><path class="cls-1" d="M352.08,181.49a5.14,5.14,0,0,1-.31-.91,4.72,4.72,0,0,1,1.13-4.06l0,0a4.83,4.83,0,0,1,3.57-2.32c5-.37,10.74,6.11,11,7" transform="translate(-3.43 -12.72)"/><path class="cls-1" d="M478,181.06c.25-.89,5.72-6.89,10.71-6.52a4.87,4.87,0,0,1,3.57,2.32l0,0a4.71,4.71,0,0,1,1.14,4.05c-.06.22-.13.44-.21.65" transform="translate(-3.43 -12.72)"/><path class="cls-1" d="M470,173.45c.1-.92,4.71-8.06,9.7-8.46a4.86,4.86,0,0,1,3.89,1.74l0,0a4.77,4.77,0,0,1,1.77,3.84C485,175.5,478,179.94,477,180" transform="translate(-3.43 -12.72)"/><path class="cls-1" d="M460.93,167c-.05-.93,3.39-8.84,8.25-10a4.93,4.93,0,0,1,4.12,1.12l.05,0a4.78,4.78,0,0,1,2.35,3.52c.38,4.9-5.91,10.42-6.82,10.66" transform="translate(-3.43 -12.72)"/><path class="cls-1" d="M451,161.76c-.19-.9,1.95-9.25,6.56-11.15a4.93,4.93,0,0,1,4.25.47l0,0a4.8,4.8,0,0,1,2.89,3.1c1.15,4.79-4.46,11.4-5.32,11.78" transform="translate(-3.43 -12.72)"/><path class="cls-1" d="M440.34,158.18c-.34-.87.44-9.44,4.7-12a4.94,4.94,0,0,1,4.27-.19l.06,0a4.82,4.82,0,0,1,3.34,2.62c1.9,4.56-2.59,11.94-3.38,12.45" transform="translate(-3.43 -12.72)"/><path class="cls-1" d="M429.25,156.27c-.47-.81-1.06-9.39,2.73-12.6a4.92,4.92,0,0,1,4.2-.85h.05a4.89,4.89,0,0,1,3.72,2.08c2.6,4.21-.66,12.19-1.36,12.82" transform="translate(-3.43 -12.72)"/><path class="cls-1" d="M417.47,156.08" transform="translate(-3.43 -12.72)"/><path class="cls-1" d="M226,238.2c-.94-.1-8.34-4.68-8.75-9.59a4.71,4.71,0,0,1,1.77-3.83l0,0a4.91,4.91,0,0,1,3.9-1.74c5,.41,9.64,7.7,9.74,8.62" transform="translate(-3.43 -12.72)"/><path class="cls-1" d="M219.19,247.05c-.94,0-9-3.33-10.17-8.12a4.71,4.71,0,0,1,1.14-4.05l0,0a4.87,4.87,0,0,1,3.57-2.32c5-.37,10.74,6.12,11,7" transform="translate(-3.43 -12.72)"/><path class="cls-1" d="M213.92,256.84c-.92.18-9.4-1.91-11.33-6.46a4.66,4.66,0,0,1,.48-4.18l0,0a4.84,4.84,0,0,1,3.16-2.84c4.87-1.13,11.58,4.39,12,5.23" transform="translate(-3.43 -12.72)"/><path class="cls-1" d="M210.28,267.31c-.89.33-9.6-.44-12.23-4.63a4.72,4.72,0,0,1-.19-4.2l0-.05a4.76,4.76,0,0,1,2.66-3.29c4.63-1.87,12.14,2.55,12.66,3.32" transform="translate(-3.43 -12.72)"/><path class="cls-1" d="M208.34,278.22c-.82.46-9.55,1-12.81-2.69a4.74,4.74,0,0,1-.86-4.12v-.06a4.77,4.77,0,0,1,2.11-3.66c4.28-2.56,12.39.65,13,1.34" transform="translate(-3.43 -12.72)"/><path class="cls-1" d="M208.16,289.29c-.74.58-9.26,2.5-13.08-.69a4.7,4.7,0,0,1-1.5-3.94v-.05a4.72,4.72,0,0,1,1.5-3.94c3.82-3.18,12.34-1.27,13.08-.69" transform="translate(-3.43 -12.72)"/><path class="cls-1" d="M197.59,302a5.41,5.41,0,0,1-.87-.43,4.74,4.74,0,0,1-2.11-3.66v-.05a4.72,4.72,0,0,1,.85-4.13c3.27-3.73,12-3.15,12.81-2.69" transform="translate(-3.43 -12.72)"/><path class="cls-1" d="M286.35,214.08c-.47-.8-.9-8.85,2.89-12.06a4.93,4.93,0,0,1,4.19-.84h.05a4.88,4.88,0,0,1,3.73,2.07c.11.2.22.4.32.6" transform="translate(-3.43 -12.72)"/><path class="cls-1" d="M275.17,214.31c-.58-.72-2.46-9,.78-12.73a4.91,4.91,0,0,1,4-1.48H280a4.9,4.9,0,0,1,4,1.48c3.24,3.76,1.48,11.77.89,12.49" transform="translate(-3.43 -12.72)"/><path class="cls-1" d="M264.11,216c-.7-.63-4-8.61-1.36-12.82a4.89,4.89,0,0,1,3.72-2.08h.06a4.87,4.87,0,0,1,4.19.84c3.79,3.21,3.3,11.48,2.84,12.29" transform="translate(-3.43 -12.72)"/><path class="cls-1" d="M253.35,219.26c-.79-.51-5.27-7.9-3.38-12.45a4.86,4.86,0,0,1,3.35-2.62l.05,0a4.9,4.9,0,0,1,4.27.19c4.26,2.58,5,11.16,4.71,12" transform="translate(-3.43 -12.72)"/><path class="cls-1" d="M243.24,224.13c-.85-.38-6.46-7-5.31-11.78a4.78,4.78,0,0,1,2.89-3.1l0,0a4.94,4.94,0,0,1,4.25-.47c4.62,1.9,6.75,10.25,6.56,11.15" transform="translate(-3.43 -12.72)"/><path class="cls-1" d="M234,230.49c-.9-.24-7.49-5.9-7.12-10.81a4.77,4.77,0,0,1,2.36-3.51l0,0a4.89,4.89,0,0,1,4.13-1.12c4.86,1.16,8.29,9.08,8.25,10" transform="translate(-3.43 -12.72)"/><path class="cls-1" d="M225.57,238.55" transform="translate(-3.43 -12.72)"/><path class="cls-1" d="M149.16,429.87c-.73.57-9.26,2.49-13.08-.69a4.75,4.75,0,0,1-1.5-3.94v-.06a4.75,4.75,0,0,1,1.5-3.94c3.82-3.18,12.35-1.26,13.08-.68" transform="translate(-3.43 -12.72)"/><path class="cls-1" d="M150.75,440.83c-.64.68-8.76,3.89-13,1.33a4.76,4.76,0,0,1-2.11-3.66v-.05a4.73,4.73,0,0,1,.86-4.12c3.26-3.74,12-3.15,12.81-2.69" transform="translate(-3.43 -12.72)"/><path class="cls-1" d="M154.05,451.41c-.52.78-8,5.19-12.65,3.33a4.84,4.84,0,0,1-2.67-3.29v-.06a4.69,4.69,0,0,1,.19-4.2c2.63-4.19,11.34-5,12.22-4.63" transform="translate(-3.43 -12.72)"/><path class="cls-1" d="M159,461.36c-.39.84-7.1,6.36-12,5.23a4.82,4.82,0,0,1-3.15-2.84l0-.05a4.72,4.72,0,0,1-.48-4.18c1.93-4.54,10.41-6.64,11.34-6.46" transform="translate(-3.43 -12.72)"/><path class="cls-1" d="M165.47,470.42c-.25.89-6,7.38-11,7a4.87,4.87,0,0,1-3.57-2.32l0-.05a4.71,4.71,0,0,1-1.14-4.05c1.18-4.79,9.23-8.16,10.17-8.12" transform="translate(-3.43 -12.72)"/><path class="cls-1" d="M173.3,478.37c-.1.92-4.75,8.21-9.74,8.62a4.86,4.86,0,0,1-3.89-1.75l0,0a4.74,4.74,0,0,1-1.77-3.83c.41-4.91,7.82-9.49,8.75-9.59" transform="translate(-3.43 -12.72)"/><path class="cls-1" d="M175,494.72a6.22,6.22,0,0,1-.92.31,4.92,4.92,0,0,1-4.13-1.12l0,0a4.79,4.79,0,0,1-2.36-3.51c-.37-4.91,6.22-10.57,7.13-10.82" transform="translate(-3.43 -12.72)"/><path class="cls-1" d="M174.54,370.79c-.91-.24-7-5.63-6.62-10.54a4.78,4.78,0,0,1,2.35-3.51l0,0a4.9,4.9,0,0,1,4.12-1.12,5.53,5.53,0,0,1,.66.2" transform="translate(-3.43 -12.72)"/><path class="cls-1" d="M166.8,378.73c-.93-.1-8.19-4.64-8.6-9.54a4.75,4.75,0,0,1,1.77-3.83l0,0a4.86,4.86,0,0,1,3.89-1.74c5,.4,9.5,7.29,9.6,8.21" transform="translate(-3.43 -12.72)"/><path class="cls-1" d="M160.2,387.63c-.95,0-9-3.34-10.17-8.12a4.72,4.72,0,0,1,1.13-4.06l0,0a4.83,4.83,0,0,1,3.57-2.32c5-.37,10.59,5.82,10.84,6.71" transform="translate(-3.43 -12.72)"/><path class="cls-1" d="M154.93,397.41c-.93.19-9.41-1.91-11.34-6.45a4.74,4.74,0,0,1,.48-4.19l0,0a4.79,4.79,0,0,1,3.15-2.84c4.87-1.14,11.58,4.38,12,5.23" transform="translate(-3.43 -12.72)"/><path class="cls-1" d="M151.28,407.89c-.88.32-9.59-.44-12.22-4.63a4.71,4.71,0,0,1-.19-4.21V399a4.8,4.8,0,0,1,2.67-3.29c4.63-1.87,12.13,2.55,12.65,3.32" transform="translate(-3.43 -12.72)"/><path class="cls-1" d="M149.34,418.79c-.82.46-9.54,1-12.81-2.69a4.69,4.69,0,0,1-.85-4.12v-.05a4.77,4.77,0,0,1,2.11-3.66c4.28-2.56,12.4.65,13,1.33" transform="translate(-3.43 -12.72)"/><path class="cls-1" d="M149.15,430.38" transform="translate(-3.43 -12.72)"/><path class="cls-1" d="M232.61,618.82c-.1.92-4.75,8.21-9.74,8.61a4.86,4.86,0,0,1-3.89-1.74l0,0a4.75,4.75,0,0,1-1.77-3.83c.41-4.91,7.82-9.48,8.75-9.58" transform="translate(-3.43 -12.72)"/><path class="cls-1" d="M241.61,625.47c0,.92-3.39,8.84-8.25,10a4.86,4.86,0,0,1-4.12-1.12l-.05,0a4.8,4.8,0,0,1-2.36-3.51c-.37-4.91,6.22-10.57,7.13-10.81" transform="translate(-3.43 -12.72)"/><path class="cls-1" d="M251.56,630.65c.19.91-1.95,9.26-6.56,11.16a4.93,4.93,0,0,1-4.25-.48l-.05,0a4.8,4.8,0,0,1-2.89-3.11c-1.15-4.79,4.46-11.39,5.32-11.77" transform="translate(-3.43 -12.72)"/><path class="cls-1" d="M262.2,634.24c.33.87-.44,9.44-4.7,12a4.92,4.92,0,0,1-4.28.18h-.05a4.84,4.84,0,0,1-3.34-2.63c-1.9-4.55,2.59-11.94,3.38-12.45" transform="translate(-3.43 -12.72)"/><path class="cls-1" d="M273.29,636.15c.47.8,1.06,9.39-2.74,12.6a4.93,4.93,0,0,1-4.19.84h-.05a4.86,4.86,0,0,1-3.72-2.07c-2.6-4.21.66-12.19,1.36-12.82" transform="translate(-3.43 -12.72)"/><path class="cls-1" d="M284.54,636.32c.59.73,2.54,9.12-.7,12.87a4.9,4.9,0,0,1-4,1.48h-.06a4.9,4.9,0,0,1-4-1.48c-3.24-3.75-1.29-12.14-.7-12.87" transform="translate(-3.43 -12.72)"/><path class="cls-1" d="M297.48,646.72a6.32,6.32,0,0,1-.44.86,4.87,4.87,0,0,1-3.72,2.08h-.05a4.9,4.9,0,0,1-4.19-.85c-3.8-3.21-3.21-11.79-2.74-12.6" transform="translate(-3.43 -12.72)"/><path class="cls-1" d="M208.1,559.39c-.82.46-9,.89-12.26-2.84a4.72,4.72,0,0,1-.85-4.13v0a4.74,4.74,0,0,1,2.11-3.66,4.25,4.25,0,0,1,.6-.31" transform="translate(-3.43 -12.72)"/><path class="cls-1" d="M208.34,570.39c-.74.58-9.13,2.42-12.94-.77a4.74,4.74,0,0,1-1.51-3.94v0a4.76,4.76,0,0,1,1.51-3.94c3.81-3.18,11.95-1.45,12.69-.87" transform="translate(-3.43 -12.72)"/><path class="cls-1" d="M210.06,581.27c-.64.69-8.75,3.9-13,1.34a4.77,4.77,0,0,1-2.11-3.66v-.05a4.76,4.76,0,0,1,.86-4.13c3.26-3.73,11.67-3.25,12.49-2.79" transform="translate(-3.43 -12.72)"/><path class="cls-1" d="M213.36,591.86c-.51.77-8,5.19-12.65,3.32a4.8,4.8,0,0,1-2.67-3.29v0a4.69,4.69,0,0,1,.19-4.2c2.63-4.19,11.34-5,12.22-4.63" transform="translate(-3.43 -12.72)"/><path class="cls-1" d="M218.31,601.8c-.39.85-7.1,6.37-12,5.23a4.79,4.79,0,0,1-3.15-2.84l0,0a4.74,4.74,0,0,1-.48-4.19c1.93-4.54,10.42-6.64,11.34-6.45" transform="translate(-3.43 -12.72)"/><path class="cls-1" d="M224.78,610.86c-.25.9-6,7.38-11,7a4.85,4.85,0,0,1-3.57-2.32l0,0a4.72,4.72,0,0,1-1.14-4.06c1.19-4.78,9.23-8.16,10.17-8.12" transform="translate(-3.43 -12.72)"/><path class="cls-1" d="M233,619.19" transform="translate(-3.43 -12.72)"/><path class="cls-1" d="M427.42,694.37c.59.72,2.54,9.11-.7,12.87a4.91,4.91,0,0,1-4,1.48h0a4.92,4.92,0,0,1-4-1.48c-3.23-3.76-1.28-12.15-.69-12.87" transform="translate(-3.43 -12.72)"/><path class="cls-1" d="M438.56,692.81c.7.63,4,8.61,1.36,12.82a4.88,4.88,0,0,1-3.72,2.07h-.06a4.93,4.93,0,0,1-4.19-.84c-3.79-3.21-3.2-11.8-2.73-12.6" transform="translate(-3.43 -12.72)"/><path class="cls-1" d="M449.32,689.56c.78.51,5.27,7.89,3.37,12.45a4.82,4.82,0,0,1-3.34,2.62l-.05,0a4.94,4.94,0,0,1-4.27-.19c-4.26-2.59-5-11.16-4.71-12" transform="translate(-3.43 -12.72)"/><path class="cls-1" d="M459.43,684.69c.85.38,6.46,7,5.31,11.78a4.78,4.78,0,0,1-2.89,3.1l0,0a4.94,4.94,0,0,1-4.25.47c-4.62-1.9-6.75-10.25-6.56-11.16" transform="translate(-3.43 -12.72)"/><path class="cls-1" d="M468.63,678.32c.91.25,7.5,5.91,7.13,10.82a4.77,4.77,0,0,1-2.36,3.51l0,0a4.92,4.92,0,0,1-4.13,1.12c-4.86-1.16-8.29-9.08-8.25-10" transform="translate(-3.43 -12.72)"/><path class="cls-1" d="M476.72,670.62c.93.1,8.34,4.68,8.75,9.58A4.77,4.77,0,0,1,483.7,684l0,0a4.86,4.86,0,0,1-3.89,1.74c-5-.4-9.64-7.69-9.74-8.61" transform="translate(-3.43 -12.72)"/><path class="cls-1" d="M493.33,669a5.29,5.29,0,0,1,.32.92,4.71,4.71,0,0,1-1.14,4.05l0,0a4.83,4.83,0,0,1-3.57,2.31c-5,.37-10.74-6.11-11-7" transform="translate(-3.43 -12.72)"/><path class="cls-1" d="M367.38,669.4c-.25.9-5.72,6.89-10.71,6.52a4.85,4.85,0,0,1-3.57-2.32l0,0a4.71,4.71,0,0,1-1.14-4.06,5.38,5.38,0,0,1,.2-.65" transform="translate(-3.43 -12.72)"/><path class="cls-1" d="M375.44,677c-.1.92-4.71,8.06-9.69,8.47a4.91,4.91,0,0,1-3.9-1.74l0,0a4.76,4.76,0,0,1-1.77-3.83c.41-4.91,7.42-9.35,8.35-9.45" transform="translate(-3.43 -12.72)"/><path class="cls-1" d="M384.49,683.51c0,.93-3.39,8.85-8.26,10a4.91,4.91,0,0,1-4.12-1.12l0,0a4.77,4.77,0,0,1-2.36-3.51c-.38-4.91,5.92-10.42,6.82-10.67" transform="translate(-3.43 -12.72)"/><path class="cls-1" d="M394.43,688.7c.19.91-1.94,9.25-6.56,11.15a4.93,4.93,0,0,1-4.25-.47l-.05,0a4.79,4.79,0,0,1-2.88-3.1c-1.16-4.79,4.45-11.4,5.31-11.78" transform="translate(-3.43 -12.72)"/><path class="cls-1" d="M405.08,692.29c.33.86-.45,9.44-4.71,12a4.9,4.9,0,0,1-4.27.19l-.05,0a4.83,4.83,0,0,1-3.35-2.62c-1.9-4.55,2.59-11.94,3.38-12.45" transform="translate(-3.43 -12.72)"/><path class="cls-1" d="M416.16,694.19c.47.81,1.06,9.39-2.73,12.61a4.93,4.93,0,0,1-4.19.84h-.06a4.86,4.86,0,0,1-3.72-2.08c-2.6-4.2.66-12.19,1.36-12.81" transform="translate(-3.43 -12.72)"/><path class="cls-1" d="M427.94,694.39" transform="translate(-3.43 -12.72)"/><path class="cls-1" d="M619.46,612.26c.94.11,8.35,4.68,8.76,9.59a4.75,4.75,0,0,1-1.77,3.83l0,0a4.91,4.91,0,0,1-3.9,1.74c-5-.4-9.63-7.69-9.74-8.61" transform="translate(-3.43 -12.72)"/><path class="cls-1" d="M626.22,603.41c.94,0,9,3.34,10.17,8.12a4.74,4.74,0,0,1-1.14,4.06l0,0a4.85,4.85,0,0,1-3.57,2.32c-5,.37-10.74-6.12-11-7" transform="translate(-3.43 -12.72)"/><path class="cls-1" d="M631.49,593.63c.92-.19,9.41,1.91,11.34,6.45a4.72,4.72,0,0,1-.48,4.18l0,0a4.82,4.82,0,0,1-3.15,2.84c-4.87,1.13-11.59-4.39-12-5.23" transform="translate(-3.43 -12.72)"/><path class="cls-1" d="M635.14,583.15c.88-.33,9.59.44,12.22,4.63a4.69,4.69,0,0,1,.19,4.2v0a4.84,4.84,0,0,1-2.67,3.3c-4.63,1.86-12.14-2.55-12.66-3.33" transform="translate(-3.43 -12.72)"/><path class="cls-1" d="M637.08,572.24c.81-.46,9.54-1,12.8,2.69a4.69,4.69,0,0,1,.86,4.13v.05a4.76,4.76,0,0,1-2.11,3.66c-4.27,2.56-12.39-.65-13-1.33" transform="translate(-3.43 -12.72)"/><path class="cls-1" d="M637.26,561.17c.73-.58,9.26-2.5,13.07.69a4.75,4.75,0,0,1,1.51,3.94v.05a4.76,4.76,0,0,1-1.51,3.94c-3.81,3.19-12.34,1.27-13.07.69" transform="translate(-3.43 -12.72)"/><path class="cls-1" d="M647.82,548.45a6.47,6.47,0,0,1,.88.42,4.77,4.77,0,0,1,2.11,3.66v.06a4.73,4.73,0,0,1-.86,4.12c-3.26,3.73-12,3.15-12.81,2.69" transform="translate(-3.43 -12.72)"/><path class="cls-1" d="M559.06,636.38c.47.81.91,8.85-2.89,12.06a4.93,4.93,0,0,1-4.19.84h-.05a4.86,4.86,0,0,1-3.72-2.07,4.3,4.3,0,0,1-.32-.6" transform="translate(-3.43 -12.72)"/><path class="cls-1" d="M570.24,636.15c.59.72,2.46,9-.78,12.73a4.9,4.9,0,0,1-4,1.48h-.06a4.9,4.9,0,0,1-4-1.48c-3.24-3.75-1.47-11.76-.89-12.49" transform="translate(-3.43 -12.72)"/><path class="cls-1" d="M581.3,634.46c.7.62,4,8.61,1.36,12.81a4.89,4.89,0,0,1-3.72,2.08h-.05a4.9,4.9,0,0,1-4.19-.85c-3.8-3.21-3.31-11.48-2.84-12.29" transform="translate(-3.43 -12.72)"/><path class="cls-1" d="M592.06,631.2c.79.51,5.28,7.9,3.38,12.45a4.85,4.85,0,0,1-3.35,2.63H592a4.9,4.9,0,0,1-4.27-.19c-4.26-2.58-5-11.15-4.71-12" transform="translate(-3.43 -12.72)"/><path class="cls-1" d="M602.17,626.33c.86.39,6.47,7,5.32,11.78a4.87,4.87,0,0,1-2.89,3.11l-.05,0a4.93,4.93,0,0,1-4.25.47c-4.62-1.9-6.75-10.24-6.56-11.15" transform="translate(-3.43 -12.72)"/><path class="cls-1" d="M611.38,620c.91.24,7.5,5.9,7.12,10.81a4.75,4.75,0,0,1-2.36,3.51l0,0a4.91,4.91,0,0,1-4.12,1.13c-4.86-1.17-8.3-9.09-8.25-10" transform="translate(-3.43 -12.72)"/><path class="cls-1" d="M619.84,611.91" transform="translate(-3.43 -12.72)"/><path class="cls-1" d="M696.25,420.6c.74-.58,9.26-2.5,13.08.68a4.72,4.72,0,0,1,1.5,3.94v.06a4.72,4.72,0,0,1-1.5,3.94c-3.82,3.18-12.34,1.26-13.08.68" transform="translate(-3.43 -12.72)"/><path class="cls-1" d="M694.67,409.63c.63-.68,8.75-3.89,13-1.33A4.73,4.73,0,0,1,709.8,412V412a4.72,4.72,0,0,1-.85,4.13c-3.27,3.73-12,3.15-12.81,2.69" transform="translate(-3.43 -12.72)"/><path class="cls-1" d="M691.36,399.05c.52-.77,8-5.19,12.66-3.32a4.76,4.76,0,0,1,2.66,3.29l0,.05a4.72,4.72,0,0,1-.19,4.2c-2.63,4.19-11.34,5-12.23,4.63" transform="translate(-3.43 -12.72)"/><path class="cls-1" d="M686.41,389.1c.39-.84,7.1-6.36,12-5.23a4.84,4.84,0,0,1,3.16,2.84l0,.05a4.66,4.66,0,0,1,.48,4.18c-1.93,4.55-10.41,6.64-11.33,6.46" transform="translate(-3.43 -12.72)"/><path class="cls-1" d="M679.94,380c.25-.89,6-7.37,11-7a4.82,4.82,0,0,1,3.57,2.31l0,0a4.68,4.68,0,0,1,1.14,4.05c-1.18,4.79-9.23,8.17-10.17,8.12" transform="translate(-3.43 -12.72)"/><path class="cls-1" d="M672.11,372.09c.11-.92,4.76-8.21,9.74-8.61a4.88,4.88,0,0,1,3.9,1.74l0,0a4.75,4.75,0,0,1,1.77,3.83c-.41,4.9-7.82,9.48-8.76,9.58" transform="translate(-3.43 -12.72)"/><path class="cls-1" d="M670.44,355.74a6,6,0,0,1,.93-.31,4.94,4.94,0,0,1,4.12,1.12l0,0a4.79,4.79,0,0,1,2.36,3.52c.38,4.91-6.21,10.56-7.12,10.81" transform="translate(-3.43 -12.72)"/><path class="cls-1" d="M670.87,479.67c.91.25,7,5.63,6.63,10.54a4.77,4.77,0,0,1-2.36,3.51l0,0a4.56,4.56,0,0,1-4.78.92" transform="translate(-3.43 -12.72)"/><path class="cls-1" d="M678.61,471.73c.94.11,8.19,4.64,8.6,9.54a4.71,4.71,0,0,1-1.77,3.84l0,0a4.85,4.85,0,0,1-3.89,1.74c-5-.4-9.5-7.29-9.6-8.21" transform="translate(-3.43 -12.72)"/><path class="cls-1" d="M685.22,462.84c.94,0,9,3.33,10.17,8.12a4.71,4.71,0,0,1-1.14,4.05l0,.05a4.83,4.83,0,0,1-3.57,2.31c-5,.37-10.59-5.82-10.84-6.71" transform="translate(-3.43 -12.72)"/><path class="cls-1" d="M690.49,453.05c.92-.19,9.4,1.91,11.33,6.46a4.66,4.66,0,0,1-.48,4.18l0,0a4.79,4.79,0,0,1-3.16,2.84c-4.87,1.14-11.58-4.38-12-5.22" transform="translate(-3.43 -12.72)"/><path class="cls-1" d="M694.13,442.58c.89-.33,9.6.44,12.23,4.63a4.72,4.72,0,0,1,.19,4.2l0,0a4.76,4.76,0,0,1-2.66,3.29c-4.63,1.87-12.14-2.55-12.66-3.32" transform="translate(-3.43 -12.72)"/><path class="cls-1" d="M696.07,431.67c.82-.46,9.55-1,12.81,2.69a4.73,4.73,0,0,1,.86,4.12v.06a4.77,4.77,0,0,1-2.11,3.66c-4.28,2.55-12.39-.65-13-1.34" transform="translate(-3.43 -12.72)"/><path class="cls-1" d="M696.27,420.08" transform="translate(-3.43 -12.72)"/><path class="cls-1" d="M612.8,231.64c.11-.92,4.76-8.21,9.74-8.61a4.91,4.91,0,0,1,3.9,1.74l0,0a4.71,4.71,0,0,1,1.76,3.83c-.4,4.91-7.81,9.48-8.75,9.59" transform="translate(-3.43 -12.72)"/><path class="cls-1" d="M603.8,225c0-.92,3.39-8.84,8.25-10a4.89,4.89,0,0,1,4.13,1.12l0,0a4.77,4.77,0,0,1,2.36,3.51c.37,4.91-6.22,10.57-7.12,10.82" transform="translate(-3.43 -12.72)"/><path class="cls-1" d="M593.86,219.81c-.19-.91,1.94-9.25,6.56-11.15a4.9,4.9,0,0,1,4.25.47l.05,0a4.81,4.81,0,0,1,2.88,3.11c1.15,4.79-4.45,11.39-5.31,11.78" transform="translate(-3.43 -12.72)"/><path class="cls-1" d="M583.21,216.22c-.33-.87.45-9.44,4.71-12a4.9,4.9,0,0,1,4.27-.19h0a4.87,4.87,0,0,1,3.35,2.63c1.9,4.55-2.59,11.94-3.38,12.45" transform="translate(-3.43 -12.72)"/><path class="cls-1" d="M572.12,214.31c-.46-.8-1-9.39,2.74-12.6a4.93,4.93,0,0,1,4.19-.84h.05a4.85,4.85,0,0,1,3.72,2.07c2.6,4.21-.66,12.2-1.35,12.82" transform="translate(-3.43 -12.72)"/><path class="cls-1" d="M560.87,214.14c-.59-.73-2.54-9.11.7-12.87a4.9,4.9,0,0,1,4-1.48h.06a4.9,4.9,0,0,1,4,1.48c3.24,3.76,1.29,12.14.7,12.87" transform="translate(-3.43 -12.72)"/><path class="cls-1" d="M547.94,203.74a5.31,5.31,0,0,1,.43-.86,4.89,4.89,0,0,1,3.72-2.08h.06a4.87,4.87,0,0,1,4.19.84c3.79,3.21,3.2,11.79,2.73,12.6" transform="translate(-3.43 -12.72)"/><path class="cls-1" d="M637.31,291.07c.82-.46,9-.89,12.26,2.84a4.76,4.76,0,0,1,.86,4.13v0a4.76,4.76,0,0,1-2.11,3.66c-.2.12-.4.22-.61.32" transform="translate(-3.43 -12.72)"/><path class="cls-1" d="M637.08,280.08c.73-.58,9.12-2.43,12.94.76a4.74,4.74,0,0,1,1.5,3.94v.05a4.74,4.74,0,0,1-1.5,3.94c-3.82,3.19-12,1.45-12.7.87" transform="translate(-3.43 -12.72)"/><path class="cls-1" d="M635.36,269.19c.63-.69,8.75-3.89,13-1.34a4.74,4.74,0,0,1,2.11,3.66v.06a4.67,4.67,0,0,1-.86,4.12c-3.26,3.73-11.67,3.25-12.49,2.79" transform="translate(-3.43 -12.72)"/><path class="cls-1" d="M632.05,258.6c.52-.77,8-5.19,12.65-3.32a4.78,4.78,0,0,1,2.67,3.29l0,.05a4.74,4.74,0,0,1-.19,4.21c-2.63,4.19-11.35,4.95-12.23,4.63" transform="translate(-3.43 -12.72)"/><path class="cls-1" d="M627.1,248.66c.39-.85,7.1-6.36,12-5.23a4.83,4.83,0,0,1,3.16,2.84l0,0a4.72,4.72,0,0,1,.48,4.18c-1.93,4.54-10.41,6.64-11.33,6.45" transform="translate(-3.43 -12.72)"/><path class="cls-1" d="M620.63,239.6c.25-.9,6-7.38,11-7a4.85,4.85,0,0,1,3.57,2.32l0,0a4.73,4.73,0,0,1,1.14,4.06c-1.18,4.78-9.23,8.16-10.17,8.12" transform="translate(-3.43 -12.72)"/><path class="cls-1" d="M612.44,231.27" transform="translate(-3.43 -12.72)"/></g><g id="Capa_9" data-name="Capa 9"><path class="cls-5" d="M396.67,145.14C374.12,72.06,285.3,70.55,265.05,50.74c.1,28.1-61.2,91.36-24.19,158.48" transform="translate(-3.43 -12.72)"/><path class="cls-5" d="M418.69,143.22c-30-97.25-142.5-102.63-169.45-129,.14,37.4-75.61,119.46-26.34,208.79" transform="translate(-3.43 -12.72)"/><path class="cls-5" d="M203,245.29C134.54,209.3,70.64,270,42.08,270.11,62.35,289.9,64.46,377.29,138.88,399" transform="translate(-3.43 -12.72)"/><path class="cls-5" d="M217.2,228.61C126.08,180.72,42.66,255.18,4.65,255.28c27,26.35,32.39,137.07,131.43,166" transform="translate(-3.43 -12.72)"/><path class="cls-5" d="M138,450.84C63.76,473,62.22,560.43,42.08,580.35c28.56-.1,92.86,60.22,161.08,23.8" transform="translate(-3.43 -12.72)"/><path class="cls-5" d="M136.08,429.18C37.24,458.71,31.76,569.39,5,595.91c38-.14,121.41,74.38,212.21,25.91" transform="translate(-3.43 -12.72)"/><path class="cls-5" d="M239.82,641.4C203.24,708.76,265,771.63,265.05,799.72c20.12-19.94,108.93-22,131-95.24" transform="translate(-3.43 -12.72)"/><path class="cls-5" d="M222.87,627.43c-48.67,89.65,27,171.72,27.11,209.12C276.75,810,389.29,804.68,418.65,707.24" transform="translate(-3.43 -12.72)"/><path class="cls-5" d="M448.74,705.32c22.55,73.08,111.38,74.59,131.63,94.4-.11-28.09,61.2-91.35,24.18-158.48" transform="translate(-3.43 -12.72)"/><path class="cls-5" d="M426.72,707.24c30,97.25,142.51,102.64,169.46,129-.15-37.4,75.6-119.45,26.33-208.79" transform="translate(-3.43 -12.72)"/><path class="cls-5" d="M642.41,605.18c68.47,36,132.36-24.75,160.92-24.83-20.27-19.79-22.38-107.18-96.8-128.89" transform="translate(-3.43 -12.72)"/><path class="cls-5" d="M628.22,621.85c91.12,47.89,174.53-26.57,212.54-26.67-27-26.35-32.39-137.07-131.43-166" transform="translate(-3.43 -12.72)"/><path class="cls-5" d="M707.39,399.62c74.27-22.19,75.8-109.59,95.94-129.51-28.56.11-92.85-60.21-161.08-23.79" transform="translate(-3.43 -12.72)"/><path class="cls-5" d="M709.33,421.28c98.85-29.53,104.32-140.21,131.12-166.72-38,.14-121.4-74.39-212.21-25.92" transform="translate(-3.43 -12.72)"/><path class="cls-5" d="M605.6,209.06c36.57-67.36-25.16-130.22-25.23-158.32-20.12,19.94-108.94,22-131,95.24" transform="translate(-3.43 -12.72)"/><path class="cls-5" d="M622.54,223c48.68-89.65-27-171.72-27.1-209.12C568.66,40.46,456.13,45.78,426.76,143.22" transform="translate(-3.43 -12.72)"/></g><g id="Capa_10" data-name="Capa 10"><line class="cls-5" x1="419.27" y1="129.03" x2="419.37" y2="32.97"/><line class="cls-5" x1="439" y1="63.19" x2="419.35" y2="129.03"/><line class="cls-5" x1="398.04" y1="62.59" x2="419.24" y2="129.04"/><ellipse class="cls-6" cx="419.37" cy="33.49" rx="4" ry="3.94"/><ellipse class="cls-6" cx="398.15" cy="62.91" rx="4" ry="3.94"/><ellipse class="cls-6" cx="438.89" cy="63.57" rx="4" ry="3.94"/><path class="cls-1" d="M590.48,78.87a52.77,52.77,0,0,0-53.85-3.37c-20.35,10.39-28.36,34.83-17.9,54.59,8.38,15.81,28.36,21.88,44.64,13.57a25.73,25.73,0,0,0,11.45-34.94A21.34,21.34,0,0,0,546.25,100a16.47,16.47,0,0,0-7.33,22.36A13.68,13.68,0,0,0,557.21,128" transform="translate(-3.43 -12.72)"/><line class="cls-5" x1="215.56" y1="212.05" x2="146.59" y2="144.05"/><line class="cls-5" x1="182.19" y1="151.76" x2="215.61" y2="211.99"/><line class="cls-5" x1="152.8" y1="179.83" x2="215.55" y2="212.07"/><ellipse class="cls-6" cx="146.96" cy="144.42" rx="4" ry="3.94"/><ellipse class="cls-6" cx="153.1" cy="179.99" rx="4" ry="3.94"/><ellipse class="cls-6" cx="182.39" cy="152.11" rx="4" ry="3.94"/><path class="cls-1" d="M292.44,63.57a51.82,51.82,0,0,0-40.51,35.09,40.38,40.38,0,0,0,26.59,51.05,33.18,33.18,0,0,0,41.31-21.46,25.84,25.84,0,0,0-17-32.67,21.23,21.23,0,0,0-26.44,13.73,16.54,16.54,0,0,0,10.88,20.91,13.6,13.6,0,0,0,16.93-8.79" transform="translate(-3.43 -12.72)"/><line class="cls-5" x1="131.17" y1="412.47" x2="33.54" y2="412.38"/><line class="cls-5" x1="64.25" y1="393.06" x2="131.17" y2="412.4"/><line class="cls-5" x1="63.64" y1="433.36" x2="131.19" y2="412.5"/><ellipse class="cls-6" cx="34.07" cy="412.38" rx="4" ry="3.94"/><ellipse class="cls-6" cx="63.97" cy="433.26" rx="4" ry="3.94"/><ellipse class="cls-6" cx="64.64" cy="393.17" rx="4" ry="3.94"/><path class="cls-1" d="M70.7,260.11a50.51,50.51,0,0,0-3.43,53,41.5,41.5,0,0,0,55.49,17.6,32.29,32.29,0,0,0,13.79-43.92A26.56,26.56,0,0,0,101,275.52a20.66,20.66,0,0,0-8.83,28.11,17,17,0,0,0,22.73,7.21,13.23,13.23,0,0,0,5.65-18" transform="translate(-3.43 -12.72)"/><line class="cls-5" x1="215.55" y1="612.91" x2="146.44" y2="680.76"/><line class="cls-5" x1="154.27" y1="645.74" x2="215.49" y2="612.85"/><line class="cls-5" x1="182.8" y1="674.65" x2="215.58" y2="612.91"/><ellipse class="cls-6" cx="146.82" cy="680.39" rx="4" ry="3.94"/><ellipse class="cls-6" cx="182.96" cy="674.35" rx="4" ry="3.94"/><ellipse class="cls-6" cx="154.63" cy="645.54" rx="4" ry="3.94"/><path class="cls-1" d="M55.15,553.35a51.5,51.5,0,0,0,35.66,39.86c21.86,6.8,45.09-4.91,51.88-26.16,5.44-17-4.32-35.2-21.81-40.65-14-4.36-28.85,3.14-33.2,16.74a20.76,20.76,0,0,0,13.95,26,16.93,16.93,0,0,0,21.26-10.72A13.29,13.29,0,0,0,114,541.79" transform="translate(-3.43 -12.72)"/><line class="cls-5" x1="419.26" y1="695.93" x2="419.16" y2="791.99"/><line class="cls-5" x1="399.52" y1="761.78" x2="419.18" y2="695.94"/><line class="cls-5" x1="440.48" y1="762.37" x2="419.28" y2="695.92"/><ellipse class="cls-6" cx="419.16" cy="791.47" rx="4" ry="3.94"/><ellipse class="cls-6" cx="440.38" cy="762.05" rx="4" ry="3.94"/><ellipse class="cls-6" cx="399.64" cy="761.39" rx="4" ry="3.94"/><path class="cls-1" d="M254.9,771.52a52.77,52.77,0,0,0,53.86,3.37c20.35-10.39,28.36-34.83,17.89-54.59-8.37-15.8-28.36-21.88-44.64-13.57a25.73,25.73,0,0,0-11.45,34.94,21.34,21.34,0,0,0,28.57,8.69A16.46,16.46,0,0,0,306.46,728a13.65,13.65,0,0,0-18.28-5.56" transform="translate(-3.43 -12.72)"/><line class="cls-5" x1="622.97" y1="612.92" x2="691.94" y2="680.91"/><line class="cls-5" x1="656.34" y1="673.2" x2="622.91" y2="612.97"/><line class="cls-5" x1="685.73" y1="645.13" x2="622.98" y2="612.89"/><ellipse class="cls-6" cx="691.56" cy="680.54" rx="4" ry="3.94"/><ellipse class="cls-6" cx="685.42" cy="644.97" rx="4" ry="3.94"/><ellipse class="cls-6" cx="656.14" cy="672.85" rx="4" ry="3.94"/><path class="cls-1" d="M552.94,786.82a51.8,51.8,0,0,0,40.51-35.08,40.39,40.39,0,0,0-26.58-51.06,33.19,33.19,0,0,0-41.32,21.47,25.84,25.84,0,0,0,17,32.67A21.24,21.24,0,0,0,569,741.08a16.54,16.54,0,0,0-10.89-20.91A13.59,13.59,0,0,0,541.2,729" transform="translate(-3.43 -12.72)"/><line class="cls-5" x1="707.35" y1="412.49" x2="804.99" y2="412.58"/><line class="cls-5" x1="774.28" y1="431.9" x2="707.36" y2="412.57"/><line class="cls-5" x1="774.88" y1="391.6" x2="707.34" y2="412.46"/><ellipse class="cls-6" cx="804.46" cy="412.58" rx="4" ry="3.94"/><ellipse class="cls-6" cx="774.55" cy="391.71" rx="4" ry="3.94"/><ellipse class="cls-6" cx="773.88" cy="431.79" rx="4" ry="3.94"/><path class="cls-1" d="M774.69,590.29a50.55,50.55,0,0,0,3.43-53,41.51,41.51,0,0,0-55.49-17.6,32.28,32.28,0,0,0-13.79,43.92,26.57,26.57,0,0,0,35.51,11.27,20.68,20.68,0,0,0,8.83-28.11,17,17,0,0,0-22.73-7.21,13.23,13.23,0,0,0-5.65,18" transform="translate(-3.43 -12.72)"/><line class="cls-5" x1="622.98" y1="212.06" x2="692.09" y2="144.2"/><line class="cls-5" x1="684.25" y1="179.23" x2="623.04" y2="212.11"/><line class="cls-5" x1="655.72" y1="150.31" x2="622.95" y2="212.05"/><ellipse class="cls-6" cx="691.71" cy="144.57" rx="4" ry="3.94"/><ellipse class="cls-6" cx="655.56" cy="150.61" rx="4" ry="3.94"/><ellipse class="cls-6" cx="683.89" cy="179.42" rx="4" ry="3.94"/><path class="cls-1" d="M790.24,297a51.49,51.49,0,0,0-35.66-39.85c-21.86-6.81-45.09,4.9-51.89,26.15-5.44,17,4.33,35.21,21.81,40.65,14,4.36,28.86-3.13,33.21-16.74a20.76,20.76,0,0,0-14-26A16.91,16.91,0,0,0,722.5,292a13.29,13.29,0,0,0,8.93,16.65" transform="translate(-3.43 -12.72)"/></g></svg>